ply
format ascii 1.0
element vertex 20
property float32 x
property float32 y
property float32 z
element face 12
property list uint8 int32 vertex_indices
end_header
         0.0000         0.0000        23.2269
        15.4845         0.0000        17.3122
        -7.7423        13.4100        17.3122
        -7.7423       -13.4100        17.3122
        17.3122        13.4100         7.7423
        17.3122       -13.4100         7.7423
       -20.2695         8.2878         7.7423
         2.9573        21.6978         7.7423
         2.9573       -21.6978         7.7423
       -20.2695        -8.2878         7.7423
        20.2695         8.2878        -7.7423
        20.2695        -8.2878        -7.7423
       -17.3122        13.4100        -7.7423
        -2.9573        21.6978        -7.7423
        -2.9573       -21.6978        -7.7423
       -17.3122       -13.4100        -7.7423
         7.7423        13.4100       -17.3122
         7.7423       -13.4100       -17.3122
       -15.4845         0.0000       -17.3122
         0.0000         0.0000       -23.2269
5 0 1 4 7 2
5 0 2 6 9 3
5 0 3 8 5 1
5 1 5 11 10 4
5 2 7 13 12 6
5 3 9 15 14 8
5 4 10 16 13 7
5 5 8 14 17 11
5 6 12 18 15 9
5 10 11 17 19 16
5 12 13 16 19 18
5 14 15 18 19 17
