ply
format ascii 1.0
element vertex 15
property float32 x
property float32 y
property float32 z
element face 12
property list uint8 int32 vertex_indices
end_header
       -34.5771        -1.9286        -2.8642
       -28.3846       -16.3141        11.6474
       -27.5771        12.1755       -17.2846
       -17.0801         9.6363         1.1339
       -10.8876        -4.7492        15.6454
       -11.3649       -25.4863        20.7071
       -10.0584        20.6109       -26.1059
         0.4386        18.0717        -7.6874
        10.4582        -5.2046        15.7928
         9.9809       -25.9416        20.8545
        17.4582         8.8995         1.3723
        11.2875        20.1555       -25.9585
        27.4996       -17.5063        12.0332
        28.3071        10.9834       -16.8988
        34.4997        -3.4022        -2.3873
3 4 1 5
3 8 9 12
3 10 14 13
3 7 11 6
3 3 2 0
4 4 3 0 1
4 8 4 5 9
4 10 8 12 14
4 7 10 13 11
4 3 7 6 2
5 3 4 8 10 7
10 2 6 11 13 14 12 9 5 1 0
