ply
format ascii 1.0
element vertex 9
property float32 x
property float32 y
property float32 z
element face 14
property list uint8 int32 vertex_indices
end_header
        -5.2191       -10.0688        15.1449
         2.8954        -2.2308       -14.1070
        -1.1619         8.9921         4.5762
        -1.1619       -21.2917        -3.5383
        13.9800        -7.1999         4.4380
       -16.3038        -5.0997        -3.4000
       -12.2465        13.9612       -13.9687
         9.2951        18.9147       -12.2663
         9.9228         4.0230        23.1212
3 0 4 8
3 0 8 2
3 8 4 2
3 0 3 4
3 0 5 3
3 0 2 5
3 1 2 4
3 1 4 3
3 1 3 5
3 1 5 6
3 2 6 5
3 2 7 6
3 2 1 7
3 1 6 7
