ply
format ascii 1.0
element vertex 7
property float32 x
property float32 y
property float32 z
element face 6
property list uint8 int32 vertex_indices
end_header
        16.2157        28.0864         0.0000
       -16.2157        28.0864         0.0000
       -32.4313         0.0000         0.0000
       -16.2157       -28.0864         0.0000
        16.2157       -28.0864         0.0000
        32.4313        -0.0000         0.0000
         0.0000         0.0000         0.0000
3 6 0 1
3 6 1 2
3 6 2 3
3 6 3 4
3 6 4 5
3 6 5 0
