ply
format ascii 1.0
element vertex 19
property float32 x
property float32 y
property float32 z
element face 24
property list uint8 int32 vertex_indices
end_header
       -52.0971         0.3837         0.0000
       -45.3253       -25.8440         0.0000
       -44.9116        26.2544         0.0000
       -27.7191        -0.0901         0.0000
       -26.2825       -45.1379         0.0000
       -25.8176        45.1002         0.0000
       -13.9176       -24.1950         0.0000
       -13.8014        23.8133         0.0000
         0.0000        51.9469         0.0000
         0.0000        -0.2633         0.0000
         0.0000       -52.2530         0.0000
        13.8014        23.8133         0.0000
        13.9176       -24.1950         0.0000
        25.8176        45.1002         0.0000
        26.2825       -45.1379         0.0000
        27.7191        -0.0901         0.0000
        44.9116        26.2544         0.0000
        45.3253       -25.8440         0.0000
        52.0971         0.3837         0.0000
3 11 7 9
3 8 7 11
3 10 6 4
3 9 6 12
3 14 17 12
3 10 14 12
3 12 6 10
3 9 7 3
3 3 6 9
3 0 3 2
3 2 3 7
3 15 11 9
3 9 12 15
3 15 17 18
3 15 12 17
3 16 15 18
3 11 15 16
3 1 4 6
3 1 3 0
3 6 3 1
3 5 7 8
3 5 2 7
3 8 11 13
3 11 16 13
