ply
format ascii 1.0
element vertex 13
property float32 x
property float32 y
property float32 z
element face 6
property list uint8 int32 vertex_indices
end_header
        18.5345       -10.6943         0.0000
        18.5345       -32.1120         0.0000
         0.0000       -21.4032         0.0000
         0.0000        -0.0026         0.0000
       -18.5345       -32.1120         0.0000
       -18.5345       -10.6943         0.0000
       -37.0691        -0.0026         0.0000
       -18.5345        10.7062         0.0000
       -18.5345        32.1067         0.0000
         0.0000        21.3979         0.0000
        18.5345        32.1067         0.0000
        18.5345        10.7062         0.0000
        37.0691        -0.0026         0.0000
4 3 2 1 0
4 3 5 4 2
4 3 7 6 5
4 3 9 8 7
4 3 11 10 9
4 3 0 12 11
