ply
format ascii 1.0
element vertex 14
property float32 x
property float32 y
property float32 z
element face 8
property list uint8 int32 vertex_indices
end_header
        28.9536       -40.7074         0.0000
        -5.8780       -40.7074         0.0000
       -11.6637       -11.6616         0.0000
        17.3528       -17.4766         0.0000
       -40.7095       -40.7074         0.0000
       -40.7095        -5.8759         0.0000
       -40.7095        28.9557         0.0000
       -17.4787        17.3549         0.0000
       -40.7095        63.7872         0.0000
        -2.4418        52.6857         0.0000
        31.7730        31.7751         0.0000
         5.7521         5.7248         0.0000
        52.6836        -2.4397         0.0000
        63.7851       -40.7074         0.0000
4 3 2 1 0
4 2 5 4 1
4 2 7 6 5
4 7 9 8 6
4 7 11 10 9
4 11 3 12 10
4 3 0 13 12
4 7 2 3 11
