ply
format ascii 1.0
element vertex 12
property float32 x
property float32 y
property float32 z
element face 8
property list uint8 int32 vertex_indices
end_header
         8.7706       -16.6176         6.0911
        17.6080        -6.8893        -5.7156
         8.8886        -3.0264        17.3783
        -8.8964       -16.5240         6.1630
        17.7260         6.7020         5.5717
         8.7784         2.9327       -17.4502
        -8.7784        -2.9327        17.4502
       -17.7260        -6.7020        -5.5717
         8.8964        16.5240        -6.1630
        -8.8886         3.0264       -17.3783
       -17.6080         6.8893         5.7156
        -8.7706        16.6176        -6.0911
4 0 1 4 2
4 0 2 6 3
4 1 5 8 4
4 3 6 10 7
4 5 9 11 8
4 7 10 11 9
6 0 3 7 9 5 1
6 2 4 8 11 10 6
