ply
format ascii 1.0
element vertex 10
property float32 x
property float32 y
property float32 z
element face 12
property list uint8 int32 vertex_indices
end_header
         0.1048       -15.6392        12.5066
        17.0749       -10.3929         1.2002
        10.5905         2.0918        16.8664
       -10.4649         2.0202        16.9532
       -16.9934       -10.5087         1.3408
        10.4649        -2.0202       -16.9532
        16.9934        10.5087        -1.3408
       -17.0749        10.3929        -1.2002
       -10.5905        -2.0918       -16.8664
        -0.1048        15.6392       -12.5066
3 0 1 2
3 0 2 3
3 0 3 4
3 1 5 6
3 1 6 2
3 3 7 4
3 4 7 8
3 5 8 9
3 5 9 6
3 7 9 8
5 0 4 8 5 1
5 2 6 9 7 3
