ply
format ascii 1.0
element vertex 32
property float32 x
property float32 y
property float32 z
element face 30
property list uint8 int32 vertex_indices
end_header
        14.4123         8.8309        32.9121
        14.4123        -8.8309       -32.9121
       -14.4123        -8.8309        32.9121
       -14.4123         8.8309       -32.9121
        32.9121        14.4123         8.8309
        32.9121       -14.4123        -8.8309
       -32.9121       -14.4123         8.8309
       -32.9121        14.4123        -8.8309
         8.8309        32.9121        14.4123
         8.8309       -32.9121       -14.4123
        -8.8309       -32.9121        14.4123
        -8.8309        32.9121       -14.4123
         8.8309       -14.4123        32.9121
         8.8309        14.4123       -32.9121
        -8.8309        14.4123        32.9121
        -8.8309       -14.4123       -32.9121
        32.9121        -8.8309        14.4123
        32.9121         8.8309       -14.4123
       -32.9121         8.8309        14.4123
       -32.9121        -8.8309       -14.4123
        14.4123       -32.9121         8.8309
        14.4123        32.9121        -8.8309
       -14.4123        32.9121         8.8309
       -14.4123       -32.9121        -8.8309
        21.3613        21.3613        21.3613
        21.3613        21.3613       -21.3613
        21.3613       -21.3613        21.3613
        21.3613       -21.3613       -21.3613
       -21.3613        21.3613        21.3613
       -21.3613        21.3613       -21.3613
       -21.3613       -21.3613        21.3613
       -21.3613       -21.3613       -21.3613
4 2 12 0 14
4 3 13 1 15
4 4 16 5 17
4 7 19 6 18
4 8 21 11 22
4 9 20 10 23
4 24 0 16 4
4 24 4 21 8
4 24 8 14 0
4 25 13 11 21
4 25 21 4 17
4 25 17 1 13
4 26 12 10 20
4 26 20 5 16
4 26 16 0 12
4 27 1 17 5
4 27 5 20 9
4 27 9 15 1
4 28 14 8 22
4 28 22 7 18
4 28 18 2 14
4 29 3 19 7
4 29 7 22 11
4 29 11 13 3
4 30 2 18 6
4 30 6 23 10
4 30 10 12 2
4 31 15 9 23
4 31 23 6 19
4 31 19 3 15
