ply
format ascii 1.0
element vertex 16
property float32 x
property float32 y
property float32 z
element face 16
property list uint8 int32 vertex_indices
end_header
        11.9594         1.1015        23.8680
        11.9594        -1.1015       -23.8680
       -11.9594        -1.1015        23.8680
       -11.9594         1.1015       -23.8680
        23.8680        11.9594         1.1015
        23.8680       -11.9594        -1.1015
       -23.8680       -11.9594         1.1015
       -23.8680        11.9594        -1.1015
         1.1015        23.8680        11.9594
         1.1015       -23.8680       -11.9594
        -1.1015       -23.8680        11.9594
        -1.1015        23.8680       -11.9594
        15.4264       -15.4264        15.4264
        15.4264        15.4264       -15.4264
       -15.4264        15.4264        15.4264
       -15.4264       -15.4264       -15.4264
4 12 0 2 10
4 12 10 9 5
4 12 5 4 0
4 13 1 3 11
4 13 11 8 4
4 13 4 5 1
4 14 2 0 8
4 14 8 11 7
4 14 7 6 2
4 15 3 1 9
4 15 9 10 6
4 15 6 7 3
3 0 4 8
3 1 5 9
3 2 6 10
3 3 7 11
