ply
format ascii 1.0
element vertex 9
property float32 x
property float32 y
property float32 z
element face 14
property list uint8 int32 vertex_indices
end_header
        25.6823         1.8528       -21.8656
       -20.6271       -17.3537        12.9307
         2.0070        -5.4201        -3.6998
        11.0129        15.7380        -3.7817
        13.4188       -18.7887        23.5223
        -7.7382        -7.3125       -24.9387
       -13.1969        16.5526       -15.9213
         6.9758         6.4635        23.0103
       -17.5346         8.2681        10.7438
3 8 1 7
3 7 1 4
3 1 2 4
3 2 0 4
3 5 0 2
3 1 5 2
3 7 3 8
3 3 6 8
3 0 3 4
3 4 3 7
3 6 5 8
3 8 5 1
3 6 3 0
3 5 6 0
