ply
format ascii 1.0
element vertex 16
property float32 x
property float32 y
property float32 z
element face 18
property list uint8 int32 vertex_indices
end_header
        37.6845       -12.5615         0.0000
        37.6845       -37.6845         0.0000
        12.5615       -37.6845         0.0000
       -12.5615       -37.6845         0.0000
       -12.5615       -12.5615         0.0000
       -37.6845       -37.6845         0.0000
       -37.6845       -12.5615         0.0000
       -37.6845        12.5615         0.0000
       -37.6845        37.6845         0.0000
       -12.5615        37.6845         0.0000
        12.5615        37.6845         0.0000
        12.5615        12.5615         0.0000
        37.6845        37.6845         0.0000
        37.6845        12.5615         0.0000
       -12.5615        12.5615         0.0000
        12.5615       -12.5615         0.0000
3 2 1 0
3 4 3 2
3 4 5 3
3 4 6 5
3 4 7 6
3 9 8 7
3 11 10 9
3 11 12 10
3 11 13 12
3 11 0 13
3 14 11 9
3 4 11 14
3 7 14 9
3 4 14 7
3 15 0 11
3 2 0 15
3 4 15 11
3 2 15 4
