ply
format ascii 1.0
element vertex 18
property float32 x
property float32 y
property float32 z
element face 19
property list uint8 int32 vertex_indices
end_header
        21.9143       -37.9578         0.0000
         0.0000       -50.6194         0.0000
         0.0000       -25.2962         0.0000
       -21.9143       -37.9578         0.0000
       -43.8287       -25.2962         0.0000
       -21.9143       -12.6616         0.0000
       -43.8287        -0.0000         0.0000
       -43.8287        25.2962         0.0000
       -21.9143        12.6616         0.0000
       -21.9143        37.9578         0.0000
         0.0000        50.6194         0.0000
         0.0000        25.2962         0.0000
        21.9143        37.9578         0.0000
        43.8287        25.2962         0.0000
        21.9143        12.6616         0.0000
        43.8287        -0.0000         0.0000
        43.8287       -25.2962         0.0000
        21.9143       -12.6616         0.0000
3 2 1 0
3 2 3 1
3 5 4 3
3 5 6 4
3 8 7 6
3 8 9 7
3 11 10 9
3 11 12 10
3 14 13 12
3 14 15 13
3 17 16 15
3 17 0 16
6 8 5 2 17 14 11
3 12 11 14
3 15 14 17
3 0 17 2
3 3 2 5
3 6 5 8
3 9 8 11
