ply
format ascii 1.0
element vertex 9
property float32 x
property float32 y
property float32 z
element face 8
property list uint8 int32 vertex_indices
end_header
        24.5857       -10.2022         0.0000
        10.2022       -24.5857         0.0000
        -0.0130         0.0130         0.0000
       -10.1696       -24.5857         0.0000
       -24.6118       -10.2022         0.0000
       -24.6118        10.1696         0.0000
       -10.1696        24.6118         0.0000
        10.2022        24.6118         0.0000
        24.5857        10.1696         0.0000
3 2 1 0
3 2 3 1
3 2 4 3
3 2 5 4
3 2 6 5
3 2 7 6
3 2 8 7
3 2 0 8
