ply
format ascii 1.0
element vertex 11
property float32 x
property float32 y
property float32 z
element face 10
property list uint8 int32 vertex_indices
end_header
        25.9103        18.8249         0.0000
         9.8969        30.4594         0.0000
        -9.8969        30.4594         0.0000
       -25.9103        18.8249         0.0000
       -32.0269         0.0000         0.0000
       -25.9103       -18.8249         0.0000
        -9.8969       -30.4594         0.0000
         9.8969       -30.4594         0.0000
        25.9103       -18.8249         0.0000
        32.0269        -0.0000         0.0000
         0.0000         0.0000         0.0000
3 10 0 1
3 10 1 2
3 10 2 3
3 10 3 4
3 10 4 5
3 10 5 6
3 10 6 7
3 10 7 8
3 10 8 9
3 10 9 0
