ply
format ascii 1.0
element vertex 24
property float32 x
property float32 y
property float32 z
element face 14
property list uint8 int32 vertex_indices
end_header
       -18.7361       -45.2790         0.0000
       -37.4723       -45.2790         0.0000
       -37.4723       -20.2975         0.0000
       -18.7361       -14.0521         0.0000
       -37.4723         4.6840         0.0000
       -18.7361        17.1747         0.0000
       -56.2084        -7.8067         0.0000
       -56.2084        10.9294         0.0000
       -37.4723        29.6656         0.0000
       -18.7361        48.4017         0.0000
         0.0000        67.1378         0.0000
         0.0000        29.6656         0.0000
        18.7361        48.4017         0.0000
        18.7361        17.1747         0.0000
        37.4723        29.6656         0.0000
        37.4723         4.6840         0.0000
        56.2084        10.9294         0.0000
        56.2084        -7.8067         0.0000
        37.4723       -20.2975         0.0000
        18.7361       -14.0521         0.0000
        37.4723       -45.2790         0.0000
        18.7361       -45.2790         0.0000
         0.0000       -45.2790         0.0000
         0.0000        -7.8067         0.0000
4 3 2 1 0
4 3 5 4 2
4 8 7 6 4
4 4 5 9 8
4 5 11 10 9
4 11 13 12 10
4 13 15 14 12
4 15 17 16 14
4 13 19 18 15
4 19 21 20 18
4 19 23 22 21
4 23 3 0 22
4 3 23 11 5
4 19 13 11 23
