ply
format ascii 1.0
element vertex 14
property float32 x
property float32 y
property float32 z
element face 6
property list uint8 int32 vertex_indices
end_header
       -19.4608       -33.4900         0.0000
       -22.0116       -52.8606         0.0000
       -44.4633       -52.8606         0.0000
       -41.1549       -27.6814         0.0000
       -31.4317        -4.1941         0.0000
       -11.9853       -15.4327         0.0000
       -15.9504        15.9594         0.0000
        -0.0649         0.0740         0.0000
         4.2032        31.4407         0.0000
        15.4164        11.9691         0.0000
        27.6651        41.1639         0.0000
        33.4990        19.4446         0.0000
        52.8697        44.4724         0.0000
        52.8697        21.9954         0.0000
4 3 2 1 0
4 0 5 4 3
4 5 7 6 4
4 7 9 8 6
4 9 11 10 8
4 11 13 12 10
