ply
format ascii 1.0
element vertex 21
property float32 x
property float32 y
property float32 z
element face 12
property list uint8 int32 vertex_indices
end_header
       -53.8938       -53.6487         0.0000
       -33.7296       -53.6487         0.0000
       -13.5653       -53.6487         0.0000
       -50.2294       -25.8147         0.0000
       -30.7522       -31.0336         0.0000
       -11.2751       -36.2525         0.0000
       -39.4858         0.1225         0.0000
       -22.0231        -9.9596         0.0000
        -4.5604       -20.0417         0.0000
       -22.3953        22.3953         0.0000
        -8.1370         8.1370         0.0000
         6.1212        -6.1212         0.0000
        -0.1225        39.4858         0.0000
         9.9596        22.0231         0.0000
        20.0417         4.5604         0.0000
        25.8147        50.2294         0.0000
        31.0336        30.7522         0.0000
        36.2525        11.2751         0.0000
        53.6487        53.8938         0.0000
        53.6487        33.7296         0.0000
        53.6487        13.5653         0.0000
4 0 1 4 3
4 1 2 5 4
4 3 4 7 6
4 4 5 8 7
4 6 7 10 9
4 7 8 11 10
4 9 10 13 12
4 10 11 14 13
4 12 13 16 15
4 13 14 17 16
4 15 16 19 18
4 16 17 20 19
