ply
format ascii 1.0
element vertex 21
property float32 x
property float32 y
property float32 z
element face 24
property list uint8 int32 vertex_indices
end_header
       -75.3616       -75.0189         0.0000
       -47.1652       -75.0189         0.0000
       -18.9689       -75.0189         0.0000
       -70.2375       -36.0976         0.0000
       -43.0019       -43.3953         0.0000
       -15.7663       -50.6931         0.0000
       -55.2144         0.1713         0.0000
       -30.7957       -13.9269         0.0000
        -6.3769       -28.0250         0.0000
       -31.3162        31.3162         0.0000
       -11.3783        11.3783         0.0000
         8.5595        -8.5595         0.0000
        -0.1713        55.2144         0.0000
        13.9269        30.7957         0.0000
        28.0250         6.3769         0.0000
        36.0976        70.2375         0.0000
        43.3953        43.0019         0.0000
        50.6931        15.7663         0.0000
        75.0189        75.3616         0.0000
        75.0189        47.1652         0.0000
        75.0189        18.9689         0.0000
3 0 4 3
3 0 1 4
3 1 5 4
3 1 2 5
3 3 7 6
3 3 4 7
3 4 8 7
3 4 5 8
3 6 10 9
3 6 7 10
3 7 11 10
3 7 8 11
3 9 13 12
3 9 10 13
3 10 14 13
3 10 11 14
3 12 16 15
3 12 13 16
3 13 17 16
3 13 14 17
3 15 19 18
3 15 16 19
3 16 20 19
3 16 17 20
