ply
format ascii 1.0
element vertex 19
property float32 x
property float32 y
property float32 z
element face 12
property list uint8 int32 vertex_indices
end_header
        16.2779       -28.1942         0.0000
         0.0000       -37.5924         0.0000
       -16.2779       -28.1942         0.0000
         0.0000       -18.7962         0.0000
       -32.5560       -18.7962         0.0000
       -32.5560         0.0000         0.0000
       -16.2779        -9.3981         0.0000
       -32.5560        18.7962         0.0000
       -16.2779        28.1942         0.0000
       -16.2779         9.3981         0.0000
         0.0000        37.5923         0.0000
        16.2779        28.1942         0.0000
         0.0000        18.7962         0.0000
        32.5560        18.7962         0.0000
        32.5560         0.0000         0.0000
        16.2779         9.3981         0.0000
        32.5560       -18.7962         0.0000
        16.2779        -9.3981         0.0000
         0.0000         0.0000         0.0000
4 3 2 1 0
4 6 5 4 2
4 9 8 7 5
4 12 11 10 8
4 15 14 13 11
4 17 0 16 14
4 3 18 6 2
4 9 5 6 18
4 0 17 18 3
4 18 12 8 9
4 12 18 15 11
4 17 14 15 18
