ply
format ascii 1.0
element vertex 38
property float32 x
property float32 y
property float32 z
element face 12
property list uint8 int32 vertex_indices
end_header
        -8.0990       -66.4482         0.0000
         8.0990       -66.4482         0.0000
       -32.3962       -52.4202         0.0000
       -16.1981       -52.4202         0.0000
        16.1981       -52.4202         0.0000
        32.3962       -52.4202         0.0000
       -40.4952       -38.3923         0.0000
        -8.0990       -38.3923         0.0000
         8.0990       -38.3923         0.0000
        40.4952       -38.3923         0.0000
       -32.3962       -24.3644         0.0000
       -16.1981       -24.3644         0.0000
        16.1981       -24.3644         0.0000
        32.3962       -24.3644         0.0000
       -40.4952       -10.3364         0.0000
        -8.0990       -10.3364         0.0000
         8.0990       -10.3364         0.0000
        40.4952       -10.3364         0.0000
       -32.3962         3.6915         0.0000
       -16.1981         3.6915         0.0000
        16.1981         3.6915         0.0000
        32.3962         3.6915         0.0000
       -40.4952        17.7195         0.0000
        -8.0990        17.7195         0.0000
         8.0990        17.7195         0.0000
        40.4952        17.7195         0.0000
       -32.3962        31.7475         0.0000
       -16.1981        31.7475         0.0000
        16.1981        31.7475         0.0000
        32.3962        31.7475         0.0000
       -40.4952        45.7755         0.0000
        -8.0990        45.7755         0.0000
         8.0990        45.7755         0.0000
        40.4952        45.7755         0.0000
       -32.3962        59.8034         0.0000
       -16.1981        59.8034         0.0000
        16.1981        59.8034         0.0000
        32.3962        59.8034         0.0000
6 0 1 4 8 7 3
6 2 3 7 11 10 6
6 4 5 9 13 12 8
6 7 8 12 16 15 11
6 10 11 15 19 18 14
6 12 13 17 21 20 16
6 15 16 20 24 23 19
6 18 19 23 27 26 22
6 20 21 25 29 28 24
6 23 24 28 32 31 27
6 26 27 31 35 34 30
6 28 29 33 37 36 32
