ply
format ascii 1.0
element vertex 31
property float32 x
property float32 y
property float32 z
element face 14
property list uint8 int32 vertex_indices
end_header
       -44.5537       -42.8724         0.0000
       -44.5537       -25.7234         0.0000
       -29.7025       -17.1490         0.0000
       -14.8512       -25.7234         0.0000
       -14.8512       -42.8724         0.0000
       -59.4049       -17.1490         0.0000
       -59.4049        -0.0000         0.0000
       -29.7025        -0.0000         0.0000
       -59.4049        17.1490         0.0000
       -44.5537        25.7234         0.0000
       -29.7025        17.1490         0.0000
       -44.5537        42.8724         0.0000
       -14.8512        42.8724         0.0000
       -14.8512        25.7234         0.0000
        14.8512        42.8724         0.0000
        14.8512        25.7234         0.0000
        -0.0000        17.1490         0.0000
        44.5537        42.8724         0.0000
        44.5537        25.7234         0.0000
        29.7025        17.1490         0.0000
        59.4050        17.1490         0.0000
        59.4050        -0.0000         0.0000
        29.7025        -0.0000         0.0000
        59.4050       -17.1490         0.0000
        44.5537       -25.7234         0.0000
        29.7025       -17.1490         0.0000
        44.5537       -42.8724         0.0000
        14.8512       -42.8724         0.0000
        14.8512       -25.7234         0.0000
        -0.0000       -17.1490         0.0000
        -0.0000        -0.0000         0.0000
5 4 3 2 1 0
5 2 7 6 5 1
5 7 10 9 8 6
5 10 13 12 11 9
5 13 16 15 14 12
5 15 19 18 17 14
5 19 22 21 20 18
5 22 25 24 23 21
5 25 28 27 26 24
5 28 29 3 4 27
5 29 30 7 2 3
5 22 30 29 28 25
5 30 22 19 15 16
5 10 7 30 16 13
