ply
format ascii 1.0
element vertex 30
property float32 x
property float32 y
property float32 z
element face 8
property list uint8 int32 vertex_indices
end_header
        26.5213       -41.4704         0.0000
        11.8031       -59.9265         0.0000
       -11.8031       -59.9265         0.0000
       -26.5213       -41.4704         0.0000
       -21.2684       -18.4561         0.0000
        -0.0000        -8.2138         0.0000
        21.2684       -18.4561         0.0000
       -47.7897       -51.7128         0.0000
       -69.0581       -41.4705         0.0000
       -74.3110       -18.4562         0.0000
       -59.5928        -0.0001         0.0000
       -35.9866        -0.0001         0.0000
       -74.3110        18.4562         0.0000
       -69.0581        41.4705         0.0000
       -47.7897        51.7128         0.0000
       -26.5213        41.4705         0.0000
       -21.2684        18.4562         0.0000
       -11.8031        59.9265         0.0000
        11.8031        59.9265         0.0000
        26.5213        41.4705         0.0000
        21.2684        18.4562         0.0000
        -0.0000         8.2138         0.0000
        47.7897        51.7127         0.0000
        69.0581        41.4704         0.0000
        74.3110        18.4561         0.0000
        59.5928        -0.0000         0.0000
        35.9866        -0.0000         0.0000
        74.3110       -18.4560         0.0000
        69.0581       -41.4704         0.0000
        47.7897       -51.7127         0.0000
7 6 5 4 3 2 1 0
7 4 11 10 9 8 7 3
7 11 16 15 14 13 12 10
7 16 21 20 19 18 17 15
7 20 26 25 24 23 22 19
7 26 6 0 29 28 27 25
5 20 21 5 6 26
5 16 11 4 5 21
