ply
format ascii 1.0
element vertex 36
property float32 x
property float32 y
property float32 z
element face 16
property list uint8 int32 vertex_indices
end_header
        19.1625       -57.4876         0.0000
         0.0000       -68.5511         0.0000
       -19.1626       -57.4876         0.0000
        -8.0990       -38.3251         0.0000
         8.0991       -38.3251         0.0000
       -38.3251       -46.4241         0.0000
       -38.3251       -30.2260         0.0000
       -19.1626       -19.1626         0.0000
       -57.4876       -19.1626         0.0000
       -46.4241         0.0000         0.0000
       -30.2260         0.0000         0.0000
       -76.6501        -8.0990         0.0000
       -76.6501         8.0991         0.0000
       -57.4876        19.1625         0.0000
       -38.3251        30.2260         0.0000
       -19.1626        19.1625         0.0000
       -38.3251        46.4241         0.0000
       -19.1626        57.4876         0.0000
        -8.0990        38.3251         0.0000
         0.0000        68.5511         0.0000
        19.1625        57.4876         0.0000
         8.0991        38.3251         0.0000
        38.3251        46.4241         0.0000
        38.3251        30.2260         0.0000
        19.1625        19.1625         0.0000
        57.4877        19.1625         0.0000
        46.4241         0.0000         0.0000
        30.2260         0.0000         0.0000
        76.6502         8.0991         0.0000
        76.6502        -8.0990         0.0000
        57.4877       -19.1626         0.0000
        38.3251       -30.2260         0.0000
        19.1625       -19.1626         0.0000
        38.3251       -46.4241         0.0000
         0.0000        -8.0990         0.0000
         0.0000         8.0991         0.0000
5 4 3 2 1 0
5 3 7 6 5 2
5 7 10 9 8 6
5 9 13 12 11 8
5 9 10 15 14 13
5 15 18 17 16 14
5 18 21 20 19 17
5 21 24 23 22 20
5 24 27 26 25 23
5 26 30 29 28 25
5 26 27 32 31 30
5 32 4 0 33 31
5 32 34 7 3 4
5 34 35 15 10 7
5 27 24 35 34 32
5 24 21 18 15 35
