ply
format ascii 1.0
element vertex 24
property float32 x
property float32 y
property float32 z
element face 13
property list uint8 int32 vertex_indices
end_header
        21.8988       -62.8729         0.0000
        -5.5820       -64.7466         0.0000
        -4.9575       -33.5183         0.0000
        20.3374       -34.4552         0.0000
       -32.7506       -54.1289         0.0000
       -54.9227       -33.2060         0.0000
       -23.6944       -18.2165         0.0000
       -60.5438        -3.2269         0.0000
       -27.1295         0.8328         0.0000
       -60.2315        24.8785         0.0000
       -22.7576        28.3136         0.0000
       -44.6173        50.7979         0.0000
       -12.1400        67.0366         0.0000
         7.5338        38.6189         0.0000
        25.9585        67.9735         0.0000
        46.2568        47.0506         0.0000
        31.2673        27.3767         0.0000
        23.1479       -11.0340         0.0000
        51.8779       -16.9673         0.0000
        50.3165       -42.2622         0.0000
         0.6636       -11.9708         0.0000
        -1.2101        13.6363         0.0000
        22.8356        13.9486         0.0000
        48.4428         6.1416         0.0000
4 3 2 1 0
3 2 4 1
4 2 6 5 4
4 6 8 7 5
4 8 10 9 7
3 10 11 9
4 10 13 12 11
3 13 14 12
4 13 16 15 14
4 19 18 17 3
4 22 21 20 17
4 17 18 23 22
3 3 0 19
