ply
format ascii 1.0
element vertex 18
property float32 x
property float32 y
property float32 z
element face 12
property list uint8 int32 vertex_indices
end_header
         0.8044       -31.4338         0.0000
        19.8256       -33.7050         0.0000
        19.5417       -60.1075         0.0000
       -11.9710       -55.8491         0.0000
        36.0077       -22.0652         0.0000
        47.6476       -45.0609         0.0000
       -34.9668       -44.2092         0.0000
       -15.0939       -16.1033         0.0000
       -48.5939       -20.6457         0.0000
       -48.5939         6.6085         0.0000
       -44.3354        34.7144         0.0000
       -17.0812        13.4221         0.0000
       -20.4880        54.3034         0.0000
         4.4951        60.8331         0.0000
         5.0629        33.5788         0.0000
        28.9103        57.4263         0.0000
        30.0459        25.9136         0.0000
        48.7832        42.3797         0.0000
4 3 2 1 0
4 2 5 4 1
4 0 7 6 3
3 7 8 6
3 7 9 8
3 11 10 9
3 11 12 10
3 14 13 12
4 14 16 15 13
3 16 17 15
3 12 11 14
3 9 7 11
