ply
format ascii 1.0
element vertex 18
property float32 x
property float32 y
property float32 z
element face 10
property list uint8 int32 vertex_indices
end_header
        55.2755       -24.8370         0.0000
        63.3882       -48.8852         0.0000
        26.5915       -47.7262         0.0000
        19.6378       -23.6780         0.0000
       -15.1307       -22.5190         0.0000
        -9.3360        -3.3964         0.0000
        14.4225        -3.3964         0.0000
       -22.9537       -46.8570         0.0000
       -55.6940       -46.2775         0.0000
       -48.7403       -23.0985         0.0000
       -42.6558        -3.1066         0.0000
       -37.1508        13.9879         0.0000
       -29.3279        37.1669         0.0000
         1.3843        35.4285         0.0000
       -16.2897        74.2533         0.0000
        21.9557        74.2533         0.0000
        31.5170        46.4385         0.0000
        43.1065        12.2495         0.0000
4 3 2 1 0
4 6 5 4 3
4 9 8 7 4
5 4 5 11 10 9
4 5 13 12 11
3 13 14 12
3 13 15 14
3 13 16 15
4 13 6 17 16
4 6 3 0 17
