ply
format ascii 1.0
element vertex 20
property float32 x
property float32 y
property float32 z
element face 10
property list uint8 int32 vertex_indices
end_header
        54.5946        -0.0000         0.0000
        44.1675       -32.0810         0.0000
        27.4042       -19.9314         0.0000
        33.8942        -0.0000         0.0000
        16.8541       -51.9202         0.0000
        10.4563       -32.2348         0.0000
       -16.8571       -51.9202         0.0000
       -10.4594       -32.2348         0.0000
       -44.1706       -32.0810         0.0000
       -27.4073       -19.9314         0.0000
       -54.5977        -0.0000         0.0000
       -33.8665        -0.0000         0.0000
       -44.1706        32.0810         0.0000
       -27.4073        19.9314         0.0000
       -16.8571        51.9202         0.0000
       -10.4594        32.2348         0.0000
        16.8541        51.9202         0.0000
        10.4563        32.2348         0.0000
        44.1675        32.0810         0.0000
        27.4042        19.9314         0.0000
4 3 2 1 0
4 2 5 4 1
4 5 7 6 4
4 7 9 8 6
4 9 11 10 8
4 11 13 12 10
4 13 15 14 12
4 15 17 16 14
4 17 19 18 16
4 19 3 0 18
