ply
format ascii 1.0
element vertex 19
property float32 x
property float32 y
property float32 z
element face 24
property list uint8 int32 vertex_indices
end_header
       -44.4423         0.3273         0.0000
       -38.6654       -22.0466         0.0000
       -38.3125        22.3967         0.0000
       -23.6462        -0.0769         0.0000
       -22.4207       -38.5056         0.0000
       -22.0241        38.4734         0.0000
       -11.8726       -20.6399         0.0000
       -11.7735        20.3143         0.0000
         0.0000        44.3141         0.0000
         0.0000        -0.2246         0.0000
         0.0000       -44.5752         0.0000
        11.7735        20.3143         0.0000
        11.8726       -20.6399         0.0000
        22.0241        38.4734         0.0000
        22.4207       -38.5056         0.0000
        23.6462        -0.0769         0.0000
        38.3125        22.3967         0.0000
        38.6654       -22.0466         0.0000
        44.4423         0.3273         0.0000
3 11 7 9
3 8 7 11
3 10 6 4
3 9 6 12
3 14 17 12
3 10 14 12
3 12 6 10
3 9 7 3
3 3 6 9
3 0 3 2
3 2 3 7
3 15 11 9
3 9 12 15
3 15 17 18
3 15 12 17
3 16 15 18
3 11 15 16
3 1 4 6
3 1 3 0
3 6 3 1
3 5 7 8
3 5 2 7
3 8 11 13
3 11 16 13
