ply
format ascii 1.0
element vertex 21
property float32 x
property float32 y
property float32 z
element face 24
property list uint8 int32 vertex_indices
end_header
       -64.6277       -64.3338         0.0000
       -40.4474       -64.3338         0.0000
       -16.2671       -64.3338         0.0000
       -60.2334       -30.9561         0.0000
       -36.8771       -37.2145         0.0000
       -13.5207       -43.4728         0.0000
       -47.3501         0.1469         0.0000
       -26.4094       -11.9432         0.0000
        -5.4686       -24.0334         0.0000
       -26.8557        26.8557         0.0000
        -9.7577         9.7577         0.0000
         7.3404        -7.3404         0.0000
        -0.1469        47.3501         0.0000
        11.9432        26.4094         0.0000
        24.0334         5.4686         0.0000
        30.9561        60.2334         0.0000
        37.2145        36.8771         0.0000
        43.4728        13.5207         0.0000
        64.3338        64.6277         0.0000
        64.3338        40.4474         0.0000
        64.3338        16.2671         0.0000
3 0 4 3
3 0 1 4
3 1 2 4
3 2 5 4
3 3 4 6
3 4 7 6
3 4 8 7
3 4 5 8
3 6 10 9
3 6 7 10
3 7 8 10
3 8 11 10
3 9 10 12
3 10 13 12
3 10 14 13
3 10 11 14
3 12 16 15
3 12 13 16
3 13 14 16
3 14 17 16
3 15 16 18
3 16 19 18
3 16 20 19
3 16 17 20
