ply
format ascii 1.0
element vertex 10
property float32 x
property float32 y
property float32 z
element face 1
property list uint8 int32 vertex_indices
end_header
         7.5328       -23.2177         0.0000
        -7.5463       -23.2177         0.0000
       -19.7307       -14.3318         0.0000
       -24.4092         0.0067         0.0000
       -19.7307        14.3453         0.0000
        -7.5463        23.1975         0.0000
         7.5328        23.1975         0.0000
        19.7509        14.3453         0.0000
        24.3958         0.0067         0.0000
        19.7509       -14.3318         0.0000
10 9 8 7 6 5 4 3 2 1 0
