ply
format ascii 1.0
element vertex 7
property float32 x
property float32 y
property float32 z
element face 6
property list uint8 int32 vertex_indices
end_header
        21.4052         0.0000         0.0000
        10.6934       -18.5396         0.0000
         0.0074         0.0000         0.0000
       -10.7044       -18.5396         0.0000
       -21.3905         0.0000         0.0000
       -10.7044        18.5396         0.0000
        10.6934        18.5396         0.0000
3 2 1 0
3 2 3 1
3 2 4 3
3 2 5 4
3 2 6 5
3 2 0 6
