ply
format ascii 1.0
element vertex 21
property float32 x
property float32 y
property float32 z
element face 12
property list uint8 int32 vertex_indices
end_header
       -31.0286       -31.0286         0.0000
       -12.9286       -31.0286         0.0000
         5.1714       -31.0286         0.0000
        23.2714       -31.0286         0.0000
        41.3714       -31.0286         0.0000
       -31.0286       -12.9286         0.0000
       -12.9286       -12.9286         0.0000
         5.1714       -12.9286         0.0000
        23.2714       -12.9286         0.0000
        41.3714       -12.9286         0.0000
       -31.0286         5.1714         0.0000
       -12.9286         5.1714         0.0000
         5.1714         5.1714         0.0000
        23.2714         5.1714         0.0000
        41.3714         5.1714         0.0000
       -31.0286        23.2714         0.0000
       -12.9286        23.2714         0.0000
         5.1714        23.2714         0.0000
       -31.0286        41.3714         0.0000
       -12.9286        41.3714         0.0000
         5.1714        41.3714         0.0000
4 0 1 6 5
4 1 2 7 6
4 2 3 8 7
4 3 4 9 8
4 5 6 11 10
4 6 7 12 11
4 7 8 13 12
4 8 9 14 13
4 10 11 16 15
4 11 12 17 16
4 15 16 19 18
4 16 17 20 19
