ply
format ascii 1.0
element vertex 25
property float32 x
property float32 y
property float32 z
element face 1 
property list uint8 int32 vertex_indices
end_header
         0 0 0
       -13.0000        -2.0000         0.0000
        11.0000        -2.0000         0.0000
        11.0000         2.0000         0.0000
         9.5000         3.5000         0.0000
        11.0000         5.0000         0.0000
        11.0000         9.0000         0.0000
         6.0000         9.0000         0.0000
         6.0000         0.0000         0.0000
         5.0000         0.0000         0.0000
         5.0000         2.0000         0.0000
         3.5000         3.5000         0.0000
         5.0000         5.0000         0.0000
         5.0000         9.0000         0.0000
         0.0000         9.0000         0.0000
         0.0000         0.0000         0.0000
        -5.0000         0.0000         0.0000
        -5.0000         7.0000         0.0000
        -1.0000         7.0000         0.0000
        -1.0000         9.0000         0.0000
        -7.0000         9.0000         0.0000
        -7.0000         0.0000         0.0000
       -11.0000         0.0000         0.0000
       -11.0000         9.0000         0.0000
       -13.0000         9.0000         0.0000
25 1 2 3 4 5 6 7 8 9 10 11 12 13 14 15 16 17 18 19 20 21 22 23 24 1
