ply
format ascii 1.0
element vertex 36
property float32 x
property float32 y
property float32 z
element face 13
property list uint8 int32 vertex_indices
end_header
       -58.0509       -81.6707         0.0000
       -48.1328       -45.9638         0.0000
         0.4683       -65.3049         0.0000
       -28.7916       -77.7035         0.0000
       -89.0469       -23.1509         0.0000
      -100.7012         0.1575         0.0000
       -77.3922        -1.8261         0.0000
       -63.0105       -17.6957         0.0000
       -82.3518        45.7832         0.0000
       -59.0428        35.8645         0.0000
       -48.6285        21.9786         0.0000
       -50.6121        63.1403         0.0000
       -19.8647        50.7423         0.0000
       -15.0047        29.2189         0.0000
       -30.2791        12.0599         0.0000
         0.4683        77.5224         0.0000
        19.8095        50.7423         0.0000
        14.9495        29.2189         0.0000
        -0.5235        45.2870         0.0000
        50.5574        63.1403         0.0000
        58.9881        35.8645         0.0000
        48.5732        21.9786         0.0000
        30.2239        12.0599         0.0000
        82.2966        45.7832         0.0000
        77.3375        -1.8261         0.0000
        62.9553       -17.6957         0.0000
       100.6460         0.1575         0.0000
        88.9917       -23.1509         0.0000
        48.0776       -45.9638         0.0000
        57.9963       -81.6707         0.0000
        29.2321       -77.7035         0.0000
       -17.4844        -8.9277         0.0000
       -23.3364       -37.0369         0.0000
        17.4292        -8.9277         0.0000
        -0.0273        12.5555         0.0000
        23.2811       -37.0369         0.0000
4 3 2 1 0
5 7 6 5 4 1
5 7 10 9 8 6
6 10 14 13 12 11 9
6 13 18 17 16 15 12
6 17 22 21 20 19 16
5 21 25 24 23 20
5 25 28 27 26 24
4 2 30 29 28
7 32 31 14 10 7 1 2
8 31 34 33 22 17 18 13 14
7 33 35 2 28 25 21 22
6 2 35 33 34 31 32
