ply
format ascii 1.0
element vertex 16
property float32 x
property float32 y
property float32 z
element face 11
property list uint8 int32 vertex_indices
end_header
        19.4416       -51.3327         0.0000
        19.4416       -83.4700         0.0000
       -10.5735       -81.6509         0.0000
        -9.9671       -51.0295         0.0000
       -11.1799       -18.2857         0.0000
        19.1384       -20.1048         0.0000
        -9.9671        14.7612         0.0000
       -33.9186        16.5803         0.0000
       -27.2486        45.3827         0.0000
        -2.3876        44.4731         0.0000
       -54.2318        19.9153         0.0000
       -52.7159        43.8668         0.0000
        22.4734        45.6859         0.0000
        21.2607        15.6708         0.0000
        55.5204        44.4731         0.0000
        54.9140        15.0644         0.0000
3 2 1 0
3 0 3 2
3 5 4 3
3 5 6 4
4 9 8 7 6
4 8 11 10 7
3 13 12 9
4 13 15 14 12
3 6 5 13
3 3 0 5
3 13 9 6
