ply
format ascii 1.0
element vertex 19
property float32 x
property float32 y
property float32 z
element face 24
property list uint8 int32 vertex_indices
end_header
       -44.4787         0.3276         0.0000
       -38.6971       -22.0646         0.0000
       -38.3439        22.4151         0.0000
       -23.6656        -0.0769         0.0000
       -22.4390       -38.5371         0.0000
       -22.0421        38.5050         0.0000
       -11.8824       -20.6568         0.0000
       -11.7831        20.3310         0.0000
         0.0000        44.3504         0.0000
         0.0000        -0.2248         0.0000
         0.0000       -44.6118         0.0000
        11.7831        20.3310         0.0000
        11.8824       -20.6568         0.0000
        22.0421        38.5050         0.0000
        22.4390       -38.5371         0.0000
        23.6656        -0.0769         0.0000
        38.3439        22.4151         0.0000
        38.6971       -22.0646         0.0000
        44.4787         0.3276         0.0000
3 11 7 9
3 8 7 11
3 10 6 4
3 9 6 12
3 14 17 12
3 10 14 12
3 12 6 10
3 9 7 3
3 3 6 9
3 0 3 2
3 2 3 7
3 15 11 9
3 9 12 15
3 15 17 18
3 15 12 17
3 16 15 18
3 11 15 16
3 1 4 6
3 1 3 0
3 6 3 1
3 5 7 8
3 5 2 7
3 8 11 13
3 11 16 13
