ply
format ascii 1.0
element vertex 27
property float32 x
property float32 y
property float32 z
element face 36
property list uint8 int32 vertex_indices
end_header
       -98.0446        -2.0151         0.0000
       -86.5885        24.0078         0.0000
       -82.8584       -25.6187         0.0000
       -67.4102         4.6276         0.0000
       -60.7493        39.3518         0.0000
       -56.6498       -39.4231         0.0000
       -49.7975       -15.3608         0.0000
       -40.3642        16.4488         0.0000
       -30.3333        47.4603         0.0000
       -28.5206       -46.2241         0.0000
       -24.4484       -13.9472         0.0000
       -13.0507        17.8132         0.0000
        -0.0000       -48.3392         0.0000
        -0.0000        49.8485         0.0000
        -0.0000       -15.7504         0.0000
        13.0507        17.8132         0.0000
        24.4484       -13.9472         0.0000
        28.5206       -46.2241         0.0000
        30.3333        47.4603         0.0000
        40.3642        16.4488         0.0000
        49.7975       -15.3608         0.0000
        56.6498       -39.4231         0.0000
        60.7492        39.3518         0.0000
        67.4102         4.6276         0.0000
        82.8584       -25.6187         0.0000
        86.5886        24.0078         0.0000
        98.0446        -2.0151         0.0000
3 16 20 19
3 19 20 23
3 26 25 23
3 23 24 26
3 20 24 23
3 22 18 19
3 19 23 22
3 22 23 25
3 0 2 3
3 3 1 0
3 1 3 4
3 21 24 20
3 12 14 9
3 9 14 10
3 10 14 11
3 13 8 11
3 6 9 10
3 5 9 6
3 2 5 6
3 6 3 2
3 17 14 12
3 16 14 17
3 20 16 17
3 17 21 20
3 15 14 16
3 15 11 14
3 15 16 19
3 19 18 15
3 15 18 13
3 13 11 15
3 7 4 3
3 3 6 7
3 8 4 7
3 7 11 8
3 10 11 7
3 7 6 10
