ply
format ascii 1.0
element vertex 19
property float32 x
property float32 y
property float32 z
element face 12
property list uint8 int32 vertex_indices
end_header
       -43.8236       -43.8236         0.0000
       -43.8236       -14.5208         0.0000
       -43.8236        14.7819         0.0000
       -14.5208       -43.8236         0.0000
       -19.4046       -19.4046         0.0000
       -24.2884         5.0143         0.0000
        14.7819       -43.8236         0.0000
         5.0143       -24.2884         0.0000
        -4.7533        -4.7533         0.0000
        17.1520        17.1520         0.0000
        39.0572        39.0572         0.0000
       -11.6287        34.7399         0.0000
         1.0311        64.4654         0.0000
       -43.8236        44.0847         0.0000
       -43.8236        73.3875         0.0000
        34.7399       -11.6287         0.0000
        64.4654         1.0311         0.0000
        44.0847       -43.8236         0.0000
        73.3875       -43.8236         0.0000
4 3 4 1 0
4 4 5 2 1
4 6 7 4 3
4 7 8 5 4
4 8 9 11 5
4 9 10 12 11
4 5 11 13 2
4 11 12 14 13
4 7 15 9 8
4 15 16 10 9
4 6 17 15 7
4 17 18 16 15
