ply
format ascii 1.0
element vertex 33
property float32 x
property float32 y
property float32 z
element face 20
property list uint8 int32 vertex_indices
end_header
        25.5973       -51.1945         0.0000
        38.3959       -38.3959         0.0000
        51.1945       -25.5973         0.0000
        12.7986       -38.3959         0.0000
        25.5973       -25.5973         0.0000
        38.3959       -12.7986         0.0000
       -25.5973       -51.1945         0.0000
       -12.7986       -38.3959         0.0000
         0.0000       -25.5973         0.0000
        12.7986       -12.7986         0.0000
        25.5973        -0.0000         0.0000
        38.3959        12.7986         0.0000
        51.1945        25.5973         0.0000
       -38.3959       -38.3959         0.0000
       -25.5973       -25.5973         0.0000
       -12.7986       -12.7986         0.0000
         0.0000         0.0000         0.0000
        12.7986        12.7986         0.0000
        25.5973        25.5973         0.0000
        38.3959        38.3959         0.0000
       -51.1945       -25.5973         0.0000
       -38.3959       -12.7986         0.0000
       -25.5973         0.0000         0.0000
       -12.7986        12.7986         0.0000
         0.0000        25.5973         0.0000
        12.7986        38.3959         0.0000
        25.5973        51.1945         0.0000
       -38.3959        12.7986         0.0000
       -25.5973        25.5973         0.0000
       -12.7986        38.3959         0.0000
       -51.1945        25.5973         0.0000
       -38.3959        38.3959         0.0000
       -25.5973        51.1945         0.0000
4 0 1 4 3
4 1 2 5 4
4 3 4 9 8
4 4 5 10 9
4 6 7 14 13
4 7 8 15 14
4 8 9 16 15
4 9 10 17 16
4 10 11 18 17
4 11 12 19 18
4 13 14 21 20
4 14 15 22 21
4 15 16 23 22
4 16 17 24 23
4 17 18 25 24
4 18 19 26 25
4 22 23 28 27
4 23 24 29 28
4 27 28 31 30
4 28 29 32 31
