ply
format ascii 1.0
element vertex 24
property float32 x
property float32 y
property float32 z
element face 14
property list uint8 int32 vertex_indices
end_header
       -18.8251       -45.4940         0.0000
       -37.6502       -45.4940         0.0000
       -37.6502       -20.3939         0.0000
       -18.8251       -14.1189         0.0000
       -37.6502         4.7063         0.0000
       -18.8251        17.2563         0.0000
       -56.4754        -7.8438         0.0000
       -56.4754        10.9813         0.0000
       -37.6502        29.8065         0.0000
       -18.8251        48.6316         0.0000
         0.0000        67.4567         0.0000
         0.0000        29.8065         0.0000
        18.8251        48.6316         0.0000
        18.8251        17.2563         0.0000
        37.6502        29.8065         0.0000
        37.6502         4.7063         0.0000
        56.4754        10.9813         0.0000
        56.4754        -7.8438         0.0000
        37.6502       -20.3939         0.0000
        18.8251       -14.1189         0.0000
        37.6502       -45.4940         0.0000
        18.8251       -45.4940         0.0000
         0.0000       -45.4940         0.0000
         0.0000        -7.8438         0.0000
4 3 2 1 0
4 3 5 4 2
4 8 7 6 4
4 4 5 9 8
4 5 11 10 9
4 11 13 12 10
4 13 15 14 12
4 15 17 16 14
4 13 19 18 15
4 19 21 20 18
4 19 23 22 21
4 23 3 0 22
4 3 23 11 5
4 19 13 11 23
