ply
format ascii 1.0
element vertex 30
property float32 x
property float32 y
property float32 z
element face 20
property list uint8 int32 vertex_indices
end_header
        32.3897         0.0000         0.0000
        52.1834         0.0000         0.0000
        71.9772         0.0000         0.0000
        26.2038        19.0382         0.0000
        42.2173        30.6727         0.0000
        58.2307        42.3071         0.0000
        10.0090        30.8045         0.0000
        16.1256        49.6294         0.0000
        22.2422        68.4543         0.0000
       -10.0090        30.8045         0.0000
       -16.1256        49.6294         0.0000
       -22.2422        68.4543         0.0000
       -26.2038        19.0382         0.0000
       -42.2173        30.6727         0.0000
       -58.2307        42.3071         0.0000
       -32.3897         0.0000         0.0000
       -52.1834         0.0000         0.0000
       -71.9772         0.0000         0.0000
       -26.2038       -19.0382         0.0000
       -42.2173       -30.6727         0.0000
       -58.2307       -42.3071         0.0000
       -10.0090       -30.8045         0.0000
       -16.1256       -49.6294         0.0000
       -22.2422       -68.4543         0.0000
        10.0090       -30.8045         0.0000
        16.1256       -49.6294         0.0000
        22.2422       -68.4543         0.0000
        26.2038       -19.0382         0.0000
        42.2173       -30.6727         0.0000
        58.2307       -42.3071         0.0000
4 0 1 4 3
4 1 2 5 4
4 3 4 7 6
4 4 5 8 7
4 6 7 10 9
4 7 8 11 10
4 9 10 13 12
4 10 11 14 13
4 12 13 16 15
4 13 14 17 16
4 15 16 19 18
4 16 17 20 19
4 18 19 22 21
4 19 20 23 22
4 21 22 25 24
4 22 23 26 25
4 24 25 28 27
4 25 26 29 28
4 27 28 1 0
4 28 29 2 1
