ply
format ascii 1.0
element vertex 25
property float32 x
property float32 y
property float32 z
element face 32
property list uint8 int32 vertex_indices
end_header
       -42.5640       -42.5640         0.0000
       -21.2820       -42.5640         0.0000
         0.0000       -42.5640         0.0000
        21.2820       -42.5640         0.0000
        42.5640       -42.5640         0.0000
       -42.5640       -21.2820         0.0000
       -21.2820       -21.2820         0.0000
         0.0000       -21.2820         0.0000
        21.2820       -21.2820         0.0000
        42.5640       -21.2820         0.0000
       -42.5640         0.0000         0.0000
       -21.2820         0.0000         0.0000
         0.0000         0.0000         0.0000
        21.2820         0.0000         0.0000
        42.5640         0.0000         0.0000
       -42.5640        21.2820         0.0000
       -21.2820        21.2820         0.0000
         0.0000        21.2820         0.0000
        21.2820        21.2820         0.0000
        42.5640        21.2820         0.0000
       -42.5640        42.5640         0.0000
       -21.2820        42.5640         0.0000
         0.0000        42.5640         0.0000
        21.2820        42.5640         0.0000
        42.5640        42.5640         0.0000
3 0 6 5
3 0 1 6
3 1 2 6
3 2 7 6
3 2 8 7
3 2 3 8
3 3 4 8
3 4 9 8
3 5 6 10
3 6 11 10
3 6 12 11
3 6 7 12
3 7 8 12
3 8 13 12
3 8 14 13
3 8 9 14
3 10 16 15
3 10 11 16
3 11 12 16
3 12 17 16
3 12 18 17
3 12 13 18
3 13 14 18
3 14 19 18
3 15 16 20
3 16 21 20
3 16 22 21
3 16 17 22
3 17 18 22
3 18 23 22
3 18 24 23
3 18 19 24
