ply
format ascii 1.0
element vertex 30
property float32 x
property float32 y
property float32 z
element face 36
property list uint8 int32 vertex_indices
end_header
       -55.5843        10.6971         0.0000
       -18.5281       -10.6971         0.0000
       -37.0561        -0.0000         0.0000
       -55.5843       -10.6971         0.0000
         0.0000       -21.3944         0.0000
       -37.0561       -42.7888         0.0000
       -18.5281       -32.0916         0.0000
       -37.0561       -21.3944         0.0000
       -18.5281       -53.4860         0.0000
       -18.5281        10.6971         0.0000
       -37.0561        42.7888         0.0000
       -37.0561        21.3944         0.0000
       -18.5281        32.0916         0.0000
         0.0000        21.3944         0.0000
       -18.5281        53.4860         0.0000
        18.5280       -53.4860         0.0000
        37.0562       -42.7888         0.0000
        37.0562       -21.3944         0.0000
         0.0000       -42.7888         0.0000
        18.5280       -32.0916         0.0000
        55.5843       -10.6971         0.0000
        55.5843        10.6971         0.0000
        37.0562        21.3944         0.0000
        18.5280       -10.6971         0.0000
        37.0562        -0.0000         0.0000
        37.0562        42.7888         0.0000
        18.5280        53.4860         0.0000
         0.0000        42.7888         0.0000
        18.5280        10.6971         0.0000
        18.5280        32.0916         0.0000
3 7 1 2
3 1 9 2
3 9 11 2
3 11 0 2
3 0 3 2
3 3 7 2
3 8 18 6
3 18 4 6
3 4 1 6
3 1 7 6
3 7 5 6
3 5 8 6
3 9 13 12
3 13 27 12
3 27 14 12
3 14 10 12
3 10 11 12
3 11 9 12
3 15 16 19
3 16 17 19
3 17 23 19
3 23 4 19
3 4 18 19
3 18 15 19
3 17 20 24
3 20 21 24
3 21 22 24
3 22 28 24
3 28 23 24
3 23 17 24
3 28 22 29
3 22 25 29
3 25 26 29
3 26 27 29
3 27 13 29
3 13 28 29
